<svg height="5.2" width="71.34" xmlns="http://www.w3.org/2000/svg"><g fill="#486380"><path d="M2.88.06H4.3l.03.03-2.9 5.11H0Q.15 4.86 2.88.06zM4.9.03h3.65q.72 0 .93.5l.04.17q0 .36-.68 1.46Q7.31 4.89 7.11 5.2H5.67l-.03-.03 1.9-3.34q.07-.2.07-.28 0-.22-.49-.22H5.64q-.07.07-1.1 1.92L3.4 5.19H1.95v-.02Q4.41.85 4.91.03zM12.17.03h4.13v.02q-2 1.3-2.08 1.3h-1.17l-1-.02q-.68 0-1.24.8h2.28q.75 0 .94.39l.03.14v.1q0 .3-.64 1.27-.58.78-1.34 1.02-.48.15-.8.15H7.61v-.03l1.9-1.12q.24-.16.3-.16l1.56-.02q.29 0 .66-.21.39-.33.42-.5H10.5q-1.11 0-1.22-.38l-.05-.17v-.08q0-.37.83-1.51.74-.99 2.11-.99z"/><path d="M16.8 0h4.96v.03l-2.14 1.31h-1.36L16.04 5.2h-1.45l-.04-.03 2.22-3.84h-2.1V1.3zM25.4.03q.83 0 1.07.5l.03.19v.05q0 .33-.6 1.3-1.74 3.05-1.8 3.12h-1.44l.7-1.28h-2.22q-.06.06-.73 1.28l-.02.01h-1.47V5.2q2.14-3.77 2.35-4.07.6-.65.95-.8.45-.24.94-.27zm-3.54 2.61h2.22q.56-.87.56-.98v-.07q0-.25-.53-.25h-.73q-.87 0-1.33.96-.2.3-.2.34zM27.53.03h3.64q.72 0 .94.5l.03.17q0 .36-.67 1.46-1.53 2.73-1.74 3.04H28.3l-.03-.03 1.9-3.34q.06-.2.06-.28 0-.22-.48-.22h-1.48q-.07.07-1.11 1.92l-1.13 1.94h-1.45v-.02Q27.04.85 27.53.03z"/><path d="M33.77 0h4.96v.03l-2.14 1.31h-1.36L33 5.2h-1.46l-.03-.03 2.22-3.84h-2.1V1.3zM40.75.06h1.44l.03.03-2.9 5.11h-1.45q.16-.34 2.88-5.14zM44.4.03h4.12v.02q-2 1.3-2.08 1.3h-1.17l-1-.02q-.68 0-1.24.8h2.28q.75 0 .94.39l.03.14v.1q0 .3-.64 1.27-.58.78-1.34 1.02-.48.15-.8.15h-3.67v-.03l1.9-1.12q.24-.16.3-.16l1.56-.02q.28 0 .66-.21.39-.33.42-.5h-1.95q-1.11 0-1.22-.38l-.05-.17v-.08q0-.37.83-1.51.74-.99 2.11-.99zM50.05.03h4.12v.02q-2 1.3-2.08 1.3h-1.17l-1-.02q-.67 0-1.23.8h2.28q.75 0 .94.39l.03.14v.1q0 .3-.64 1.27-.59.78-1.35 1.02-.47.15-.8.15h-3.67v-.03l1.91-1.12q.24-.16.3-.16l1.56-.02q.28 0 .66-.21.38-.33.42-.5h-1.95q-1.12 0-1.22-.38l-.05-.17v-.08q0-.37.83-1.51.74-.99 2.1-.99z"/><path d="M59.08.03l.01.02h.02q-1.5 2.72-2.25 3.98-.41.68-1.53 1.06l-.61.11-.84-.01h-1.49q-.73 0-.84-.5l-.02-.14q0-.36.6-1.32Q53.87.18 53.97.05h1.4l.02.01h.02l-1.88 3.31-.03.2v.04q0 .28.48.28h.77q.86 0 1.38-1.2l1.5-2.66zM59.73.03h5.88v.03l-2.14 1.28h-2.99q-.14.21-.45.78h2.06v.04l-1.76 1.01h-.92l-.41.74h4.45l.02.01h.01q-.7 1.26-.75 1.28h-5.9l-.02-.01h-.01Q59.67.09 59.73.03z"/><path d="M67.22.03h4.12v.02q-2 1.3-2.07 1.3h-1.18l-1-.02q-.67 0-1.23.8h2.28q.75 0 .94.39l.03.14v.1q0 .3-.64 1.27-.58.78-1.34 1.02-.48.15-.8.15h-3.67v-.03l1.9-1.12q.24-.16.3-.16l1.56-.02q.28 0 .66-.21.38-.33.42-.5h-1.95q-1.12 0-1.22-.38l-.05-.17v-.08q0-.37.83-1.51.74-.99 2.1-.99z"/></g></svg>